<?xml version="1.0" encoding="UTF-8" standalone="no"?>
<!DOCTYPE svg PUBLIC "-//W3C//DTD SVG 1.1//EN" "http://www.w3.org/Graphics/SVG/1.1/DTD/svg11.dtd">
<svg width="100%" height="100%" viewBox="0 0 565 450" version="1.1" xmlns="http://www.w3.org/2000/svg" xmlns:xlink="http://www.w3.org/1999/xlink" xml:space="preserve" xmlns:serif="http://www.serif.com/" style="fill-rule:evenodd;clip-rule:evenodd;stroke-linejoin:round;stroke-miterlimit:2;">
    <g id="lion" transform="matrix(0.503333,0,0,0.503333,-693.209,-425.518)">
        <clipPath id="_clip1">
            <path d="M1585.65,1095.56L1437.96,1180.77C1435.4,1195.08 1422.89,1205.94 1407.84,1205.94C1390.94,1205.94 1377.24,1192.24 1377.24,1175.36C1377.24,1158.47 1390.94,1144.78 1407.84,1144.78C1413.25,1144.78 1418.33,1146.19 1422.74,1148.64L1565.69,1066.17L1560.98,1059.24L1574.26,1040.86L1489.91,992.191L1507.57,961.469L1607.61,1019.19L1626.08,1046.71L1675.68,1167.48L1678.67,1176.47L1691.07,1180.08L1784.82,1197.03L1724.08,1282.98L1460.26,1519.1L1436.61,1492.69L1697.07,1259.58L1677.34,1230.53L1510.07,1368.49C1510.15,1369.33 1510.18,1370.19 1510.18,1371.05C1510.18,1387.94 1496.48,1401.63 1479.58,1401.63C1462.68,1401.63 1448.99,1387.94 1448.99,1371.05C1448.99,1354.16 1462.68,1340.47 1479.58,1340.47C1482.2,1340.47 1484.75,1340.8 1487.17,1341.42L1657.33,1201.07L1631,1162.31L1411.19,1311.59L1391.3,1282.27L1611.08,1133L1585.65,1095.56ZM2033.28,1586.99L1937.94,1561.78L1843.19,1586.83L1822.52,1566.18L1653.25,1735.33L1678.42,1760.48L1839.17,1599.84L1867.98,1635.16L1794.34,1708.75C1793.34,1708.65 1792.33,1708.6 1791.3,1708.6C1774.4,1708.6 1760.7,1722.29 1760.7,1739.18C1760.7,1756.07 1774.4,1769.75 1791.3,1769.75C1808.2,1769.75 1821.9,1756.07 1821.9,1739.18C1821.9,1736.82 1821.63,1734.52 1821.12,1732.31L1890.59,1662.88L1919.41,1698.2L1818.84,1798.69L1844.02,1823.85L1938.31,1729.62L2032.6,1823.85L2057.77,1798.69L1956.81,1697.8L1985.62,1662.48L2055.49,1732.31C2054.99,1734.52 2054.72,1736.82 2054.72,1739.18C2054.72,1756.07 2068.42,1769.75 2085.32,1769.75C2102.22,1769.75 2115.92,1756.07 2115.92,1739.18C2115.92,1722.29 2102.22,1708.6 2085.32,1708.6C2084.29,1708.6 2083.27,1708.65 2082.27,1708.75L2008.23,1634.76L2037.04,1599.45L2198.19,1760.48L2223.36,1735.33L2054.1,1566.18L2033.28,1586.99ZM1937.94,1418.16L2033.48,1357.86L1937.94,1341.78L1842.41,1357.86L1937.94,1418.16ZM2094.86,1368.2L1948.95,1460.28L1937.94,1466.62L1926.94,1460.28L1781.03,1368.2L1758.27,1372.03L1785.59,1251.94L1715.14,1314.51L1634.47,1424.81L1634.04,1424.38L1548.91,1509.45C1547.43,1509.23 1545.91,1509.12 1544.37,1509.12C1527.47,1509.12 1513.78,1522.81 1513.78,1539.7C1513.78,1556.59 1527.47,1570.27 1544.37,1570.27C1561.27,1570.27 1574.97,1556.59 1574.97,1539.7C1574.97,1537.83 1574.8,1535.99 1574.48,1534.21L1648.66,1460.08L1675.66,1495.42L1532.54,1638.44L1557.72,1663.6L1697.45,1523.96L1722.35,1556.58L1655.03,1623.86C1654.14,1623.78 1653.24,1623.74 1652.33,1623.74C1635.43,1623.74 1621.73,1637.43 1621.73,1654.32C1621.73,1671.21 1635.43,1684.9 1652.33,1684.9C1669.23,1684.9 1682.93,1671.21 1682.93,1654.32C1682.93,1651.85 1682.63,1649.45 1682.08,1647.14L1754.7,1574.57L1748.94,1568.81L1932.58,1520.26L1937.94,1518.73L1943.24,1520.24L2127.52,1568.96L2121.92,1574.57L2194.54,1647.14C2193.98,1649.45 2193.69,1651.85 2193.69,1654.32C2193.69,1671.21 2207.39,1684.9 2224.29,1684.9C2241.18,1684.9 2254.88,1671.21 2254.88,1654.32C2254.88,1637.43 2241.18,1623.74 2224.29,1623.74C2223.38,1623.74 2222.48,1623.78 2221.59,1623.86L2153.85,1556.16L2178.76,1523.54L2318.9,1663.6L2344.07,1638.44L2200.55,1495.01L2227.54,1459.67L2302.13,1534.21C2301.81,1535.99 2301.64,1537.83 2301.64,1539.7C2301.64,1556.59 2315.34,1570.27 2332.24,1570.27C2349.14,1570.27 2362.84,1556.59 2362.84,1539.7C2362.84,1522.81 2349.14,1509.12 2332.24,1509.12C2330.7,1509.12 2329.19,1509.23 2327.71,1509.45L2242.57,1424.38L2241.73,1425.23L2160.75,1314.51L2090.3,1251.94L2117.62,1372.02L2094.86,1368.2ZM2184.7,1180.1L2091.07,1197.03L2152.54,1282.98L2416.36,1519.1L2440,1492.69L2179.09,1259.17L2198.81,1230.14L2366.54,1368.49C2366.47,1369.33 2366.43,1370.19 2366.43,1371.05C2366.43,1387.94 2380.13,1401.63 2397.03,1401.63C2413.93,1401.63 2427.63,1387.94 2427.63,1371.05C2427.63,1354.16 2413.93,1340.47 2397.03,1340.47C2394.41,1340.47 2391.87,1340.8 2389.44,1341.42L2218.82,1200.68L2245.12,1161.97L2465.42,1311.59L2485.31,1282.27L2265.03,1132.66L2290.44,1095.26L2438.66,1180.77C2441.21,1195.08 2453.73,1205.94 2468.78,1205.94C2485.68,1205.94 2499.38,1192.24 2499.38,1175.36C2499.38,1158.47 2485.68,1144.78 2468.78,1144.78C2463.37,1144.78 2458.29,1146.19 2453.88,1148.64L2310.4,1065.87L2314.9,1059.24L2301.84,1041.15L2386.7,992.191L2369.04,961.469L2269.01,1019.19L2249.81,1046.71L2200.21,1167.46L2197.03,1177.33L2184.7,1180.1ZM2056.73,1131.28L2066.17,1159.4L2166.07,1141.34L2192.14,1077.87L2164.64,1092.73L2129.35,1142.91L2082.62,1119.56L2056.73,1131.28ZM1861.98,1134.16L1840.2,1199L1812.5,1320.79L1934.59,1300.24L1937.94,1299.79L1941.3,1300.24L2063.39,1320.79L2035.69,1199.01L2013.91,1134.16L1937.94,1090.33L1861.98,1134.16ZM1793.27,1119.56L1746.54,1142.91L1711.24,1092.73L1683.74,1077.87L1709.81,1141.34L1809.72,1159.4L1819.16,1131.28L1793.27,1119.56ZM1610.27,990.969L1739.63,1060.86L1760.01,1089.85L1792.5,1073.61L1843.67,1096.79L1927.57,1048.38L1937.94,1042.7L1948.32,1048.38L2032.21,1096.79L2083.39,1073.61L2115.88,1089.85L2136.26,1060.86L2265.62,990.969L2247.5,965.871L2282.85,946C2287.13,948.27 2292.01,949.559 2297.19,949.559C2314.09,949.559 2327.79,935.871 2327.79,918.98C2327.79,902.09 2314.09,888.41 2297.19,888.41C2281.93,888.41 2269.29,899.559 2266.97,914.16L2226.57,936.871L2202.92,904.109L2239.92,840.059L2209.19,822.41L2169.36,891.34L2143.67,881.969L2154.04,843.289C2165.44,838.84 2173.51,827.762 2173.51,814.789C2173.51,797.91 2159.82,784.219 2142.92,784.219C2126.02,784.219 2112.32,797.91 2112.32,814.789C2112.32,822.328 2115.05,829.23 2119.57,834.559L2110.14,869.73L2069.74,854.988L2069.74,760.871L2034.13,760.871L2034.13,864.191L1949.54,920.941L1937.94,929.238L1926.35,920.941L1842.48,864.68L1842.48,760.871L1806.88,760.871L1806.88,854.73L1766.41,869.488L1757.05,834.559C1761.57,829.23 1764.3,822.328 1764.3,814.789C1764.3,797.91 1750.6,784.219 1733.7,784.219C1716.8,784.219 1703.1,797.91 1703.1,814.789C1703.1,827.762 1711.17,838.84 1722.57,843.289L1732.88,881.73L1707.13,891.121L1667.43,822.41L1636.69,840.059L1673.37,903.539L1649.53,936.578L1609.64,914.16C1607.33,899.559 1594.68,888.41 1579.42,888.41C1562.53,888.41 1548.83,902.09 1548.83,918.98C1548.83,935.871 1562.53,949.559 1579.42,949.559C1584.61,949.559 1589.49,948.27 1593.77,946L1628.6,965.578L1610.27,990.969Z"/>
        </clipPath>
        <g clip-path="url(#_clip1)">
            <path d="M905.84,1046.88L1679.16,2321.49L2970.78,1537.84L2197.46,263.234L905.84,1046.88Z" style="fill:url(#_Linear2);fill-rule:nonzero;"/>
        </g>
    </g>
    <defs>
        <linearGradient id="_Linear2" x1="0" y1="0" x2="1" y2="0" gradientUnits="userSpaceOnUse" gradientTransform="matrix(1291.62,-783.641,783.641,1291.62,1292.5,1684.19)"><stop offset="0" style="stop-color:rgb(45,51,139);stop-opacity:1"/><stop offset="0.03" style="stop-color:rgb(46,50,139);stop-opacity:1"/><stop offset="0.04" style="stop-color:rgb(46,50,139);stop-opacity:1"/><stop offset="0.04" style="stop-color:rgb(47,50,139);stop-opacity:1"/><stop offset="0.04" style="stop-color:rgb(47,50,139);stop-opacity:1"/><stop offset="0.06" style="stop-color:rgb(50,48,139);stop-opacity:1"/><stop offset="0.06" style="stop-color:rgb(50,48,139);stop-opacity:1"/><stop offset="0.07" style="stop-color:rgb(51,48,138);stop-opacity:1"/><stop offset="0.07" style="stop-color:rgb(51,48,138);stop-opacity:1"/><stop offset="0.07" style="stop-color:rgb(52,48,138);stop-opacity:1"/><stop offset="0.08" style="stop-color:rgb(52,47,138);stop-opacity:1"/><stop offset="0.09" style="stop-color:rgb(54,47,138);stop-opacity:1"/><stop offset="0.09" style="stop-color:rgb(54,46,138);stop-opacity:1"/><stop offset="0.1" style="stop-color:rgb(55,46,138);stop-opacity:1"/><stop offset="0.1" style="stop-color:rgb(55,46,138);stop-opacity:1"/><stop offset="0.11" style="stop-color:rgb(56,46,138);stop-opacity:1"/><stop offset="0.11" style="stop-color:rgb(56,46,138);stop-opacity:1"/><stop offset="0.12" style="stop-color:rgb(58,45,138);stop-opacity:1"/><stop offset="0.13" style="stop-color:rgb(58,45,138);stop-opacity:1"/><stop offset="0.14" style="stop-color:rgb(60,45,138);stop-opacity:1"/><stop offset="0.15" style="stop-color:rgb(61,45,138);stop-opacity:1"/><stop offset="0.15" style="stop-color:rgb(61,44,138);stop-opacity:1"/><stop offset="0.16" style="stop-color:rgb(62,44,138);stop-opacity:1"/><stop offset="0.18" style="stop-color:rgb(66,43,138);stop-opacity:1"/><stop offset="0.19" style="stop-color:rgb(66,43,138);stop-opacity:1"/><stop offset="0.2" style="stop-color:rgb(68,43,138);stop-opacity:1"/><stop offset="0.2" style="stop-color:rgb(68,43,138);stop-opacity:1"/><stop offset="0.24" style="stop-color:rgb(72,41,138);stop-opacity:1"/><stop offset="0.24" style="stop-color:rgb(73,41,138);stop-opacity:1"/><stop offset="0.25" style="stop-color:rgb(73,41,138);stop-opacity:1"/><stop offset="0.26" style="stop-color:rgb(75,41,138);stop-opacity:1"/><stop offset="0.26" style="stop-color:rgb(76,41,138);stop-opacity:1"/><stop offset="0.27" style="stop-color:rgb(76,40,137);stop-opacity:1"/><stop offset="0.28" style="stop-color:rgb(78,40,137);stop-opacity:1"/><stop offset="0.29" style="stop-color:rgb(79,40,137);stop-opacity:1"/><stop offset="0.29" style="stop-color:rgb(79,40,138);stop-opacity:1"/><stop offset="0.3" style="stop-color:rgb(81,40,138);stop-opacity:1"/><stop offset="0.32" style="stop-color:rgb(84,39,137);stop-opacity:1"/><stop offset="0.32" style="stop-color:rgb(85,38,137);stop-opacity:1"/><stop offset="0.33" style="stop-color:rgb(85,38,137);stop-opacity:1"/><stop offset="0.35" style="stop-color:rgb(89,37,136);stop-opacity:1"/><stop offset="0.35" style="stop-color:rgb(89,37,136);stop-opacity:1"/><stop offset="0.36" style="stop-color:rgb(90,37,136);stop-opacity:1"/><stop offset="0.36" style="stop-color:rgb(90,37,136);stop-opacity:1"/><stop offset="0.37" style="stop-color:rgb(92,37,136);stop-opacity:1"/><stop offset="0.37" style="stop-color:rgb(92,37,136);stop-opacity:1"/><stop offset="0.39" style="stop-color:rgb(95,36,136);stop-opacity:1"/><stop offset="0.39" style="stop-color:rgb(95,36,136);stop-opacity:1"/><stop offset="0.4" style="stop-color:rgb(97,35,136);stop-opacity:1"/><stop offset="0.41" style="stop-color:rgb(97,35,136);stop-opacity:1"/><stop offset="0.43" style="stop-color:rgb(101,35,136);stop-opacity:1"/><stop offset="0.43" style="stop-color:rgb(101,34,136);stop-opacity:1"/><stop offset="0.43" style="stop-color:rgb(102,34,135);stop-opacity:1"/><stop offset="0.44" style="stop-color:rgb(102,34,135);stop-opacity:1"/><stop offset="0.45" style="stop-color:rgb(104,34,135);stop-opacity:1"/><stop offset="0.45" style="stop-color:rgb(104,34,135);stop-opacity:1"/><stop offset="0.45" style="stop-color:rgb(105,33,135);stop-opacity:1"/><stop offset="0.46" style="stop-color:rgb(107,33,135);stop-opacity:1"/><stop offset="0.47" style="stop-color:rgb(107,33,136);stop-opacity:1"/><stop offset="0.49" style="stop-color:rgb(110,32,135);stop-opacity:1"/><stop offset="0.51" style="stop-color:rgb(114,32,135);stop-opacity:1"/><stop offset="0.51" style="stop-color:rgb(114,31,135);stop-opacity:1"/><stop offset="0.52" style="stop-color:rgb(117,31,135);stop-opacity:1"/><stop offset="0.53" style="stop-color:rgb(117,31,135);stop-opacity:1"/><stop offset="0.54" style="stop-color:rgb(119,30,135);stop-opacity:1"/><stop offset="0.54" style="stop-color:rgb(119,30,134);stop-opacity:1"/><stop offset="0.54" style="stop-color:rgb(120,30,134);stop-opacity:1"/><stop offset="0.55" style="stop-color:rgb(120,30,134);stop-opacity:1"/><stop offset="0.55" style="stop-color:rgb(121,30,134);stop-opacity:1"/><stop offset="0.55" style="stop-color:rgb(122,29,134);stop-opacity:1"/><stop offset="0.56" style="stop-color:rgb(122,29,134);stop-opacity:1"/><stop offset="0.57" style="stop-color:rgb(123,29,134);stop-opacity:1"/><stop offset="0.58" style="stop-color:rgb(126,28,134);stop-opacity:1"/><stop offset="0.59" style="stop-color:rgb(128,28,134);stop-opacity:1"/><stop offset="0.59" style="stop-color:rgb(128,28,134);stop-opacity:1"/><stop offset="0.6" style="stop-color:rgb(130,28,134);stop-opacity:1"/><stop offset="0.61" style="stop-color:rgb(130,27,134);stop-opacity:1"/><stop offset="0.61" style="stop-color:rgb(131,27,134);stop-opacity:1"/><stop offset="0.63" style="stop-color:rgb(133,27,135);stop-opacity:1"/><stop offset="0.64" style="stop-color:rgb(136,26,135);stop-opacity:1"/><stop offset="0.64" style="stop-color:rgb(136,26,135);stop-opacity:1"/><stop offset="0.66" style="stop-color:rgb(139,25,135);stop-opacity:1"/><stop offset="0.66" style="stop-color:rgb(140,25,135);stop-opacity:1"/><stop offset="0.71" style="stop-color:rgb(149,23,135);stop-opacity:1"/><stop offset="0.72" style="stop-color:rgb(151,22,135);stop-opacity:1"/><stop offset="0.73" style="stop-color:rgb(152,22,135);stop-opacity:1"/><stop offset="0.74" style="stop-color:rgb(154,22,134);stop-opacity:1"/><stop offset="0.74" style="stop-color:rgb(155,22,134);stop-opacity:1"/><stop offset="0.75" style="stop-color:rgb(155,21,134);stop-opacity:1"/><stop offset="0.76" style="stop-color:rgb(157,21,134);stop-opacity:1"/><stop offset="0.78" style="stop-color:rgb(161,20,135);stop-opacity:1"/><stop offset="0.79" style="stop-color:rgb(164,20,134);stop-opacity:1"/><stop offset="0.8" style="stop-color:rgb(164,19,134);stop-opacity:1"/><stop offset="0.82" style="stop-color:rgb(168,18,134);stop-opacity:1"/><stop offset="0.83" style="stop-color:rgb(171,18,134);stop-opacity:1"/><stop offset="0.84" style="stop-color:rgb(173,17,134);stop-opacity:1"/><stop offset="0.85" style="stop-color:rgb(175,17,134);stop-opacity:1"/><stop offset="0.86" style="stop-color:rgb(176,16,134);stop-opacity:1"/><stop offset="0.86" style="stop-color:rgb(176,16,134);stop-opacity:1"/><stop offset="0.86" style="stop-color:rgb(177,16,134);stop-opacity:1"/><stop offset="0.87" style="stop-color:rgb(178,16,135);stop-opacity:1"/><stop offset="0.87" style="stop-color:rgb(178,16,135);stop-opacity:1"/><stop offset="0.88" style="stop-color:rgb(180,15,135);stop-opacity:1"/><stop offset="0.89" style="stop-color:rgb(183,15,135);stop-opacity:1"/><stop offset="0.9" style="stop-color:rgb(184,14,135);stop-opacity:1"/><stop offset="0.9" style="stop-color:rgb(184,14,135);stop-opacity:1"/><stop offset="0.91" style="stop-color:rgb(185,14,134);stop-opacity:1"/><stop offset="0.92" style="stop-color:rgb(187,13,134);stop-opacity:1"/><stop offset="0.93" style="stop-color:rgb(189,13,134);stop-opacity:1"/><stop offset="0.93" style="stop-color:rgb(189,13,134);stop-opacity:1"/><stop offset="0.95" style="stop-color:rgb(191,13,133);stop-opacity:1"/><stop offset="0.95" style="stop-color:rgb(191,13,133);stop-opacity:1"/><stop offset="0.96" style="stop-color:rgb(192,12,133);stop-opacity:1"/><stop offset="0.98" style="stop-color:rgb(196,12,133);stop-opacity:1"/><stop offset="0.98" style="stop-color:rgb(196,12,133);stop-opacity:1"/><stop offset="0.98" style="stop-color:rgb(197,11,132);stop-opacity:1"/><stop offset="1" style="stop-color:rgb(199,11,132);stop-opacity:1"/></linearGradient>
    </defs>
</svg>
